<?xml version="1.0" encoding="UTF-8"?>
<svg id="Layer_2" data-name="Layer 2" xmlns="http://www.w3.org/2000/svg" xmlns:xlink="http://www.w3.org/1999/xlink" viewBox="0 0 404.11 317.42">
  <defs>
    <style>
      .cls-1, .cls-2, .cls-3 {
        stroke-width: 0px;
      }

      .cls-2 {
        fill: none;
      }

      .cls-3 {
        fill: #231f20;
      }

      .cls-4 {
        clip-path: url(#clippath);
      }
    </style>
    <clipPath id="clippath">
      <rect class="cls-2" x="254.89" y="149.26" width="138.83" height="129.64"/>
    </clipPath>
  </defs>
  <g id="Layer_1-2" data-name="Layer 1">
    <g class="cls-4">
      <g>
        <path class="cls-1" d="m267.18,295.49c19.45-.15,38.88-2.04,57.99-5.63-9.12-4.94-12.82-16.62-11.5-26.91,1.33-10.29,6.65-19.56,11.83-28.55,5.17-8.99,10.4-18.34,11.51-28.65.44-4.14.12-8.61-2.28-12.02-4.71-6.7-14.63-6.39-21.89-10.16-12.97-6.74-14.72-24.77-11.53-39.04,5.14-22.97,18.33-43.4,24.68-66.06,6.35-22.67,3.47-51.13-16.39-63.76-16.65-10.59-38.21-6.11-57.91-7.32-10.03-.61-20.67-2.7-29.71,1.68-1.96.95-3.87,2.29-4.76,4.29-.97,2.2-.51,4.73-.44,7.14.38,12.13-11.53,23.12-23.59,21.78-3.29,33.4,1.76,67.59,14.56,98.62,7.27-33.71,14.77-68.01,31.76-98.01,5.5-9.71,13.28-19.73,24.35-21.12,11-1.38,21.52,6.89,25.82,17.11,4.3,10.22,3.58,21.85,1.56,32.76-5.51,29.7-20.33,57.61-41.85,78.81-3.89,3.83-8.04,7.51-10.86,12.18-6.66,11.03-4.42,25.79,2.73,36.51.85,1.27,1.79,2.53,3.09,3.34,5.05,3.13,10.91-2,16.04-4.99,7.17-4.18,16.63-4.09,23.72.24,7.09,4.32,11.5,12.69,11.06,20.98-.64,12.14-10.78,21.93-21.93,26.76-11.15,4.83-23.5,5.94-35.33,8.71-3.98.93-8.37,2.41-10.19,6.07-2.15,4.32.54,9.79,4.63,12.37,4.08,2.57,9.12,2.99,13.93,3.34l20.88,19.53Z"/>
        <path class="cls-1" d="m267.18,289.13c18.91-.19,37.71-1.95,56.3-5.4-.51,3.87-1.01,7.75-1.52,11.62-13.08-7.61-16.86-23.72-13.78-37.72,3.73-16.94,16.53-29.88,21.26-46.36,1.84-6.41,2.97-13.92-4.26-16.87-6.13-2.5-12.75-3.08-18.29-7.04-11.16-7.98-14.3-22.65-13.08-35.64,3.01-31.98,26.81-58.26,28.7-90.41.7-12-1.18-25.3-9.09-34.85-9.86-11.91-25.68-12.78-40.02-12.65-9.2.09-18.31.26-27.49-.52-4.48-.38-22.63-2.86-22.92,4.29-.18,4.41.09,8.27-1.55,12.52-1.38,3.57-3.42,6.8-6.04,9.6-5.63,6.02-13.94,9.59-22.2,8.94,2.12-2.12,4.24-4.24,6.36-6.36-3.13,33.07,1.78,66.17,14.34,96.93-4.09,0-8.17,0-12.26,0,4.82-22.33,9.68-44.75,17.42-66.28,3.77-10.49,8.18-20.79,13.51-30.59,4.58-8.42,10.07-16.64,18.1-22.12,18.21-12.43,40.06.86,46.22,19.8,3.5,10.75,2.52,22.38.5,33.31-1.86,10.06-4.81,19.9-8.69,29.35-8.02,19.54-19.76,37.4-34.79,52.27-6.97,6.9-13.21,13.02-12.97,23.49.1,4.27,1.17,8.55,2.96,12.42.74,1.6,1.83,4.54,3.25,5.63,1.43,1.09,2.79-.04,4.35-.94,4.36-2.52,8.27-5.41,13.28-6.6,4.93-1.17,10.13-1.15,15.04.12,9.82,2.54,17.45,10.42,20.46,19.99,6.36,20.23-10.72,37.13-28.14,43.68-5.68,2.14-11.64,3.43-17.59,4.59-5.94,1.16-12.54,1.73-18.22,3.91-3.32,1.27-3.89,3.62-.76,5.9,4.55,3.32,10.92.92,15.24,4.36,7.38,5.87,13.97,13.06,20.86,19.51,5.99,5.6-3.02,14.58-8.99,8.99-6.96-6.51-13.92-13.02-20.88-19.53,1.5.62,3,1.24,4.5,1.86-8.46-.63-17.56-1.99-22.7-9.57-4.97-7.33-3.32-16.73,4.26-21.49,7.28-4.57,17.32-4.97,25.56-6.64,8.79-1.78,17.89-4,25.18-9.51,5.53-4.18,10.31-10.43,10.27-17.64s-5.22-14.28-12.43-16.14c-9.12-2.35-14.61,3.9-22.39,7.09-9.19,3.77-15.98-1.44-20.25-9.39-8.51-15.81-7.13-34.08,5.29-47.29,6.17-6.57,12.72-12.57,18.28-19.72,5.39-6.93,10.09-14.43,14.14-22.22,8.12-15.65,14.46-33.99,14.98-51.75.25-8.54-1.27-17.59-7.43-23.95-4.94-5.1-12.08-7.88-18.86-4.73-7.86,3.66-12.68,12.1-16.64,19.39-5.3,9.74-9.61,19.95-13.24,30.41-7.16,20.66-11.8,42.08-16.41,63.42-1.47,6.79-10.13,5.23-12.26,0-12.92-31.64-18.01-66.28-14.79-100.31.3-3.21,2.67-6.65,6.36-6.36,6.34.5,12.12-2.59,15.33-8.13,3.94-6.81-.37-14.9,5.69-21.03C219.92,1.01,229.53-.14,237.19.01c8.34.17,16.58,1.3,24.95,1.24,15.88-.11,32.45-1.33,47.12,5.96,12.48,6.2,20.68,18.41,23.99,31.71,3.35,13.46,2.56,27.93-1.13,41.24-4.64,16.71-13,32.04-19.15,48.18-4.76,12.49-9.89,27.81-4.59,40.99,5.31,13.19,21.58,9.44,30.17,19.03,6.39,7.14,5.61,17.69,3.15,26.29-2.69,9.37-7.79,17.77-12.56,26.19-6.73,11.88-16.96,34.11-.76,43.53,4.43,2.58,4.02,10.59-1.52,11.62-19.7,3.65-39.65,5.65-59.68,5.86-8.18.08-8.19-12.63,0-12.71Z"/>
      </g>
      <g>
        <path class="cls-1" d="m391.31,91.5c-11.15,4.33-23.79,10.31-26.46,21.97-1.35,5.88.25,11.98,1.84,17.79,2.48,9.11,4.97,18.22,7.45,27.32,4.01,14.7,7.9,30.94,1.27,44.66-5.64,11.66-18.02,19.26-22.58,31.39-5.96,15.88,2.48,36.76-9.32,48.94h54.23s0-192.07,0-192.07h-6.44Z"/>
        <path class="cls-1" d="m393,97.63c-11.07,4.34-24.26,10.49-21.95,24.56,1.38,8.44,4.35,16.82,6.6,25.06,2.15,7.87,4.5,15.73,6.04,23.75,2.89,15.14,2.14,30.17-7.47,42.82-4.07,5.36-9.03,9.99-13.05,15.38-3.86,5.16-5.8,10.73-6.22,17.14-.96,14.54,1.81,29.99-8.92,41.72l-4.5-10.85c18.08,0,36.15,0,54.23,0-2.12,2.12-4.24,4.24-6.36,6.36,0-21.73,0-43.45,0-65.18,0-34.33,0-68.65,0-102.98,0-7.97,0-15.94,0-23.91,2.12,2.12,4.24,4.24,6.36,6.36-2.15,0-4.29,0-6.44,0-8.18,0-8.19-12.71,0-12.71h6.44c3.44,0,6.36,2.91,6.36,6.36,0,21.73,0,43.45,0,65.18,0,34.33,0,68.65,0,102.98,0,7.97,0,15.94,0,23.91,0,3.44-2.91,6.36-6.36,6.36h-54.23c-5.69,0-8.15-6.86-4.5-10.85,4.04-4.41,4.74-10.42,4.93-16.17.23-6.73-.21-13.48.61-20.18.83-6.86,2.92-13.22,6.89-18.92,4.05-5.81,9.17-10.7,13.59-16.2,9.99-12.42,8.12-27.23,4.44-41.75-2.18-8.59-4.63-17.12-6.96-25.67-2.22-8.14-5.3-16.68-4.31-25.24,1.89-16.43,17.68-24.19,31.4-29.57,3.22-1.26,6.95,1.39,7.82,4.44,1.03,3.59-1.26,6.57-4.44,7.82Z"/>
      </g>
      <g>
        <path class="cls-1" d="m115.82,308.1c-16.64-7.04-28.18-23.43-32.39-41.01-4.2-17.58-1.81-36.18,3.48-53.46,3.14-10.26,7.29-20.21,12.37-29.66,3.79-7.05,8.19-14.12,9-22.08,1.09-10.79-5.43-21.93-15.37-26.26-5.37-2.34-11.75-2.99-15.9-7.13-6.92-6.92-3.46-18.55.42-27.53,2.98-6.88,5.95-13.76,8.93-20.63,3-6.93,6.04-14.05,6.32-21.59.28-7.54-2.82-15.7-9.46-19.28-10.99-5.92-24.63,3.71-29.58,15.17s-4.79,24.52-9.02,36.26c-3.41,9.46-9.7,17.86-17.82,23.79l-12.13,15.99c-2.64,8.03.17,16.83,4.07,24.33,3.9,7.5,8.93,14.54,11.14,22.7,2.92,10.78.5,22.45-4.37,32.5-4.87,10.05-12.04,18.78-19.15,27.4l.18-165.39c9.23-10.72,15.63-23.85,18.39-37.73,1.03-5.2,1.5-10.87-1.01-15.54l31.02-12.61c12.17,4.74,25.45,5.59,38.48,6.39,7.38.45,14.76.9,22.14,1.35,13.75.84,27.51,1.68,41.26,2.52l-4.65,14.51c4.88,1.53,9.75,3.06,14.63,4.59,1.54.48,3.14,1,4.27,2.15,2.33,2.35,1.69,6.5-.47,9.01-2.15,2.51-5.36,3.8-8.43,5.03-14.44,5.84-28.49,12.62-42.04,20.29-6.61,3.74-13.47,8.1-16.57,15.04-3.48,7.79-1.02,17.56,5.11,23.49,6.13,5.94,15.35,8.15,23.75,6.63,7.09-1.28,14.9-4.84,20.96-.95,5.48,3.51,6.16,11.39,4.47,17.68-4.19,15.61-18.16,26.24-27.72,39.27-3.7,5.04-6.77,10.51-9.69,16.04-10.78,20.36-19.91,42.41-19.96,65.44-.02,6.7.77,13.53,3.52,19.64,3.67,8.19,10.95,14.75,19.57,17.26,8.62,2.51,18.42.83,25.52-4.66,5.97-4.61,9.76-11.42,13.38-18.03,9.65-17.61,19.4-35.44,24.46-54.87,2.86-10.98,4.37-22.76,10.99-31.97,3.02,10.06,5.39,20.32,7.11,30.69,2.47,14.96,3.24,31.46-5.14,44.11-6.31,9.52-16.97,15.46-23.37,24.92-5.75,8.5-7.52,19-9.14,29.14l-51.58-2.95Z"/>
        <path class="cls-1" d="m112.61,313.59c-16.31-7.16-27.88-22.15-33.55-38.74-6.76-19.75-4.53-41.75,1.28-61.43,3.04-10.31,7.12-20.38,12.03-29.94,4.06-7.9,10.5-16.42,9.6-25.79-.73-7.58-6-14.24-13.1-16.85-8.68-3.18-17.27-5.41-20.83-15-3.08-8.28-.41-17.62,2.79-25.43,4.05-9.87,8.86-19.48,12.58-29.48,2.75-7.4,5.34-17.69-.96-24.15-5.42-5.57-13.34-1.6-17.9,2.99-6.65,6.68-8.09,16.42-9.69,25.32-1.76,9.74-3.81,19.29-8.98,27.88-2.18,3.63-4.81,7.08-7.72,10.15-1.5,1.59-3.11,3.07-4.8,4.46l-1.03.82c-1.7,1.47-1.73,1.31-.08-.46-.02,0-.41.54-.39.51-2.79,3.95-5.86,7.73-8.79,11.59-.67.89-1.39,1.76-2.03,2.67-.19.28-.83,1.46-.65,1.01-1.8,4.45.54,10.91,2.32,14.99,4.55,10.43,12.1,19.36,14.04,30.86,4.12,24.46-11.29,44.8-25.91,62.54C7.23,246.51,0,242.77,0,237.62c.02-22.79.05-45.58.07-68.37.03-30.29.07-60.57.1-90.86,0-2.86-.56-6.77.87-9.37,1.98-3.6,5.32-6.7,7.52-10.25,2.32-3.73,4.39-7.65,6.02-11.73,2.69-6.69,7.18-17.78,3.83-24.86-1.91-4.03-.22-7.71,3.8-9.34,5.43-2.21,10.86-4.41,16.29-6.62,3.67-1.49,7.33-2.98,11-4.47,2.85-1.16,4.63-2.16,7.85-1.24,7.87,2.23,15.32,4.2,23.52,4.98s16.27,1.13,24.41,1.63c17.18,1.05,34.36,2.1,51.54,3.15,3.93.24,7.46,3.89,6.13,8.05-1.55,4.84-3.1,9.67-4.65,14.51-1.48-2.61-2.96-5.21-4.44-7.82,4.39,1.38,8.78,2.75,13.17,4.13,4.38,1.38,8.51,2.97,10.66,7.32,3.9,7.88-1.85,16.02-8.86,19.47-8.81,4.33-18.14,7.65-26.97,11.99-8.13,3.99-16.43,8.08-24,13.08-5.95,3.93-10.79,9.42-9.21,17s7.96,12.18,15.24,13.28c8.22,1.24,15.82-3.42,24.02-2.93,8.46.51,15.13,6.38,16.64,14.75,2.94,16.39-9.01,30.58-19.12,41.94-5.66,6.36-11,12.67-15.33,20.05-4.74,8.1-9.01,16.56-12.74,25.17-6.99,16.14-12.7,35.17-10.02,52.94,2.34,15.49,17.1,28.22,33.04,21.66,8.47-3.48,12.81-12.11,16.97-19.69,5.08-9.27,10.15-18.56,14.56-28.18s7.82-19.67,10.24-30.04c2.27-9.73,4.53-19.59,10.29-27.94,3.06-4.44,9.99-3.97,11.62,1.52,3.8,12.82,6.78,25.97,8.31,39.27,1.37,11.83.91,24.06-4.06,35.05-4.85,10.74-14.38,17.25-22.29,25.51-8.55,8.93-10.62,20.62-12.51,32.41-.42,2.59-3.58,4.81-6.13,4.67-17.19-.98-34.38-1.97-51.58-2.95-8.13-.47-8.19-13.18,0-12.71,17.19.98,34.38,1.97,51.58,2.95-2.04,1.56-4.09,3.11-6.13,4.67,1.85-11.52,4.13-23.26,11.33-32.78,6.49-8.58,16.41-14.27,22.19-23.37,6.03-9.5,6.17-21.19,5.04-32.03-1.31-12.6-4.42-25.16-8.01-37.28,3.87.51,7.75,1.01,11.62,1.52-5.16,7.48-6.97,16.2-9.01,24.91-2.21,9.44-5.23,18.52-9.03,27.43-3.84,9.02-8.32,17.73-12.98,26.35-4.24,7.85-8.23,16.07-14.07,22.89-11.51,13.45-32.17,16.13-46.73,6-15.52-10.8-18.79-29.37-17.01-47.13,1.93-19.19,8.95-37.24,17.59-54.34,4.36-8.63,9.01-17.09,15-24.71,5.05-6.43,10.89-12.19,15.95-18.61,4.36-5.53,9.11-12.62,9.17-19.93.02-2.51-.41-5.68-2.97-6.87-3.62-1.68-8.97.7-12.55,1.51-16.48,3.75-35.12-2.89-40.1-20.38-2.67-9.37-.05-18.93,6.58-25.96,6.72-7.12,16.42-11.58,24.98-16.03,10.02-5.2,20.29-9.91,30.74-14.18,1.91-.78,4.35-1.51,5.93-2.88.48-.41.8-.72,1.14-1.25.47-.74.55.22.19-.03-1.77-1.24-4.96-1.57-7.01-2.21-2.93-.92-5.85-1.84-8.78-2.75-3.17-1-5.52-4.45-4.44-7.82,1.55-4.84,3.1-9.67,4.65-14.51,2.04,2.68,4.09,5.36,6.13,8.05-17.71-1.08-35.42-2.16-53.12-3.25-16.89-1.03-34.42-1.22-50.46-7.24h3.38c-10.34,4.2-20.68,8.4-31.02,12.61,1.27-3.11,2.53-6.23,3.8-9.34,4.92,10.41,2,22.32-1.79,32.68-3.82,10.42-9.42,19.82-16.58,28.29.62-1.5,1.24-3,1.86-4.5-.02,18.68-.04,37.36-.06,56.03-.03,29.61-.06,59.23-.1,88.84,0,6.84-.01,13.68-.02,20.52-3.62-1.5-7.24-3-10.85-4.5,12.37-15.01,27.94-34.29,21.46-55.15-3.06-9.87-10.06-18.06-13.62-27.78-2.53-6.88-4.3-17.07.11-23.56,2.84-4.18,6.15-8.11,9.2-12.13.76-1,1.48-2.05,2.29-3.02,3.1-3.74,7.39-6.41,10.46-10.31,12.68-16.09,7.88-38.46,19.3-54.93,4.85-6.99,12.23-13.08,20.82-14.52,9.07-1.52,17.76,2.32,22.74,10.09,11.69,18.26-2.4,40.88-9.78,57.94-2.59,5.98-8.83,17.48-3.85,23.71,2.31,2.89,6.75,3.6,10.06,4.71,4.6,1.54,8.75,3.58,12.44,6.77,6.72,5.81,10.8,14.5,11.25,23.34.51,10.07-4.65,19.1-9.28,27.65-11.16,20.59-19.22,44.51-17.61,68.2,1.38,20.31,12.03,40.06,31.18,48.48,3.17,1.39,3.84,5.96,2.28,8.7-1.86,3.26-5.57,3.65-8.7,2.28Z"/>
      </g>
    </g>
    <g>
      <g>
        <path class="cls-3" d="m282.17,121.76v12.29h-1.25v-2.78c-1.03,1.84-2.92,3.05-5.28,3.05-3.49,0-6.37-2.78-6.37-6.41s2.88-6.41,6.37-6.41c2.36,0,4.25,1.2,5.28,3.05v-2.78h1.25Zm-1.25,6.14c0-2.92-2.26-5.23-5.19-5.23s-5.21,2.31-5.21,5.23,2.29,5.23,5.21,5.23,5.19-2.31,5.19-5.23Z"/>
        <path class="cls-3" d="m275.63,134.51c-3.68,0-6.56-2.9-6.56-6.61s2.88-6.61,6.56-6.61c2.11,0,3.93.93,5.09,2.57v-2.3h1.64v12.67h-1.64v-2.3c-1.16,1.64-2.98,2.57-5.09,2.57Zm0-12.83c-3.46,0-6.17,2.73-6.17,6.22s2.71,6.22,6.17,6.22c2.2,0,4.07-1.08,5.12-2.95l.36-.64v3.32h.87v-11.9h-.87v3.32l-.36-.64c-1.05-1.87-2.92-2.95-5.12-2.95Zm.1,11.65c-3.03,0-5.4-2.38-5.4-5.43s2.37-5.43,5.4-5.43,5.38,2.38,5.38,5.43-2.36,5.43-5.38,5.43Zm0-10.47c-2.81,0-5.02,2.21-5.02,5.04s2.2,5.04,5.02,5.04,4.99-2.22,4.99-5.04-2.19-5.04-4.99-5.04Z"/>
      </g>
      <g>
        <path class="cls-3" d="m284.98,121.76h1.23v12.29h-1.23v-12.29Z"/>
        <path class="cls-3" d="m286.4,134.24h-1.61v-12.67h1.61v12.67Zm-1.23-.38h.84v-11.9h-.84v11.9Z"/>
      </g>
      <g>
        <path class="cls-3" d="m292.14,122.97v7.99c0,2.16,1.15,2.21,3.66,1.99v1.11c-3.22.49-4.92-.29-4.92-3.1v-7.99h-2.7v-1.2h2.7v-19.7h1.25v19.7s3.66,0,3.66,0v1.2h-3.66Z"/>
        <path class="cls-3" d="m294.17,134.38c-1.11,0-1.93-.24-2.51-.74-.66-.57-.98-1.45-.98-2.69v-7.8h-2.7v-1.59h2.7v-19.7h1.64v19.7h3.66v1.59h-3.66v7.8c0,.75.14,1.23.44,1.5.52.47,1.57.42,3.01.29l.21-.02v1.48l-.16.02c-.61.09-1.16.14-1.65.14Zm-5.8-11.61h2.7v8.18c0,1.12.28,1.91.84,2.39.71.61,1.92.78,3.69.54v-.73c-1.43.11-2.49.14-3.09-.41-.39-.36-.57-.92-.57-1.79v-8.18h3.66v-.82h-3.66v-19.7h-.87v19.7h-2.7v.82Z"/>
      </g>
      <g>
        <path class="cls-3" d="m308.66,126.41v7.64h-1.25v-7.64c0-2.26-1.3-3.74-3.61-3.74s-4.3,1.57-4.3,4.89v6.49h-1.23v-31.99h1.23v22.03c.93-1.82,2.51-2.6,4.4-2.6,2.92,0,4.77,1.94,4.77,4.92Z"/>
        <path class="cls-3" d="m308.85,134.24h-1.64v-7.83c0-2.22-1.28-3.54-3.42-3.54-2.57,0-4.11,1.76-4.11,4.7v6.68h-1.61v-32.37h1.61v21.52c.94-1.37,2.38-2.1,4.21-2.1,3.01,0,4.96,2,4.96,5.11v7.83Zm-1.25-.38h.87v-7.45c0-2.87-1.8-4.72-4.57-4.72-1.95,0-3.38.84-4.23,2.5l-.36.71v-22.64h-.84v31.6h.84v-6.3c0-3.14,1.72-5.08,4.49-5.08,2.35,0,3.8,1.5,3.8,3.93v7.45Z"/>
      </g>
      <g>
        <path class="cls-3" d="m330.28,102.19v31.86h-1.23v-2.85c-1.01,1.89-2.9,3.12-5.28,3.12-3.51,0-6.37-2.78-6.37-6.41s2.85-6.41,6.37-6.41c2.38,0,4.28,1.23,5.28,3.12v-22.43h1.23Zm-1.23,25.72c0-2.92-2.29-5.23-5.21-5.23s-5.21,2.31-5.21,5.23,2.29,5.23,5.21,5.23,5.21-2.31,5.21-5.23Z"/>
        <path class="cls-3" d="m323.77,134.51c-3.68,0-6.56-2.9-6.56-6.61s2.88-6.61,6.56-6.61c2.13,0,3.95.95,5.09,2.62v-21.93h1.61v32.25h-1.61v-2.35c-1.14,1.67-2.96,2.62-5.09,2.62Zm0-12.83c-3.46,0-6.17,2.73-6.17,6.22s2.71,6.22,6.17,6.22c2.23,0,4.09-1.1,5.11-3.02l.36-.68v3.43h.84v-31.48h-.84v23l-.36-.68c-1.02-1.92-2.89-3.02-5.11-3.02Zm.07,11.65c-3.03,0-5.4-2.38-5.4-5.43s2.37-5.43,5.4-5.43,5.4,2.38,5.4,5.43-2.37,5.43-5.4,5.43Zm0-10.47c-2.81,0-5.02,2.21-5.02,5.04s2.2,5.04,5.02,5.04,5.02-2.22,5.02-5.04-2.2-5.04-5.02-5.04Z"/>
      </g>
      <g>
        <path class="cls-3" d="m344.49,127.96c0,.2-.02.39-.02.59h-11.13c.29,2.78,2.41,4.6,5.21,4.6,2.02,0,3.54-.93,4.25-2.24l1.08.64c-1.01,1.67-2.92,2.78-5.36,2.78-3.78,0-6.46-2.7-6.46-6.41s2.61-6.41,6.37-6.41,6.07,3.1,6.07,6.46Zm-11.16-.61h9.88c-.27-3-2.38-4.67-4.79-4.67-2.8,0-4.84,1.94-5.09,4.67Z"/>
        <path class="cls-3" d="m338.51,134.51c-3.86,0-6.66-2.78-6.66-6.61s2.76-6.61,6.56-6.61c4.07,0,6.26,3.43,6.26,6.66,0,.1,0,.2-.01.31,0,.09-.01.19-.01.28v.19h-11.11c.36,2.53,2.35,4.21,4.99,4.21,1.82,0,3.35-.8,4.08-2.14l.1-.17,1.42.84-.1.17c-1.1,1.82-3.11,2.87-5.52,2.87Zm-.1-12.83c-3.58,0-6.17,2.62-6.17,6.22s2.64,6.22,6.27,6.22c2.2,0,4.04-.92,5.09-2.52l-.74-.44c-.83,1.36-2.43,2.16-4.32,2.16-2.93,0-5.1-1.92-5.4-4.77l-.02-.21h11.16s0-.08,0-.11c0-.09.01-.19.01-.28,0-3.04-2.06-6.27-5.88-6.27Zm5,5.85h-10.3l.02-.21c.26-2.85,2.43-4.84,5.28-4.84s4.72,1.95,4.98,4.84l.02.21Zm-9.88-.38h9.45c-.32-2.57-2.13-4.29-4.58-4.29-2.57,0-4.55,1.75-4.87,4.29Z"/>
      </g>
      <g>
        <path class="cls-3" d="m354.19,130.83c0,2.01-1.77,3.49-4.4,3.49-2.46,0-4.08-1.15-4.67-2.73l1.06-.61c.44,1.33,1.77,2.16,3.61,2.16,1.72,0,3.17-.76,3.17-2.31,0-3.34-7.45-1.43-7.45-5.85,0-1.94,1.67-3.49,4.18-3.49,1.99,0,3.51.96,4.18,2.46l-1.03.59c-.52-1.28-1.79-1.87-3.15-1.87-1.6,0-2.95.84-2.95,2.31,0,3.29,7.45,1.35,7.45,5.85Z"/>
        <path class="cls-3" d="m349.79,134.51c-2.37,0-4.18-1.07-4.85-2.85l-.06-.15,1.4-.82.07.23c.42,1.27,1.71,2.03,3.43,2.03,1.37,0,2.98-.55,2.98-2.12,0-1.41-1.48-1.79-3.19-2.23-2-.52-4.26-1.1-4.26-3.62,0-2.13,1.84-3.68,4.37-3.68,2.01,0,3.64.96,4.35,2.57l.07.16-1.38.78-.08-.2c-.44-1.09-1.55-1.75-2.97-1.75-1.33,0-2.76.66-2.76,2.12,0,1.37,1.46,1.74,3.14,2.17,2.02.52,4.3,1.1,4.3,3.67,0,2.17-1.89,3.68-4.59,3.68Zm-4.43-2.84c.66,1.54,2.3,2.45,4.43,2.45,2.48,0,4.21-1.36,4.21-3.3,0-2.27-2.04-2.8-4.01-3.3-1.77-.45-3.44-.88-3.44-2.55,0-1.47,1.29-2.5,3.14-2.5,1.49,0,2.68.66,3.24,1.79l.69-.39c-.68-1.37-2.14-2.19-3.93-2.19-2.31,0-3.98,1.39-3.98,3.3,0,2.22,2.02,2.74,3.97,3.24,1.71.44,3.48.9,3.48,2.6,0,1.52-1.32,2.5-3.36,2.5-1.8,0-3.17-.77-3.71-2.08l-.72.42Z"/>
      </g>
      <g>
        <path class="cls-3" d="m356.56,121.76h1.23v26.95h-1.23v-26.95Z"/>
        <path class="cls-3" d="m357.98,148.9h-1.61v-27.33h1.61v27.33Zm-1.23-.38h.84v-26.56h-.84v26.56Z"/>
      </g>
      <g>
        <path class="cls-3" d="m266.07,102.19h1.23v31.86h-1.23v-31.86Z"/>
        <path class="cls-3" d="m267.49,134.24h-1.61v-32.25h1.61v32.25Zm-1.23-.38h.84v-31.48h-.84v31.48Z"/>
      </g>
      <g>
        <path class="cls-3" d="m371.78,121.76v11.7c0,3.69-2.73,5.77-6.12,5.77-2.88,0-4.92-1.15-5.8-2.95l1.08-.61c.64,1.3,2.02,2.38,4.72,2.38,3.07,0,4.89-1.79,4.89-4.6v-2.26c-1.01,1.89-2.9,3.12-5.28,3.12-3.51,0-6.37-2.78-6.37-6.41s2.85-6.41,6.37-6.41c2.38,0,4.28,1.23,5.28,3.12v-2.85h1.23Zm-1.23,6.14c0-2.92-2.29-5.23-5.21-5.23s-5.21,2.31-5.21,5.23,2.29,5.23,5.21,5.23,5.21-2.31,5.21-5.23Z"/>
        <path class="cls-3" d="m365.66,139.43c-2.84,0-5.01-1.11-5.97-3.06l-.08-.16,1.42-.8.09.18c.74,1.51,2.27,2.28,4.55,2.28,2.94,0,4.7-1.65,4.7-4.4v-1.57c-1.14,1.67-2.96,2.62-5.09,2.62-3.68,0-6.56-2.9-6.56-6.61s2.88-6.61,6.56-6.61c2.13,0,3.95.95,5.09,2.62v-2.35h1.61v11.89c0,3.57-2.54,5.97-6.31,5.97Zm-5.54-3.07c.93,1.71,2.94,2.68,5.54,2.68,3.55,0,5.93-2.24,5.93-5.58v-11.51h-.84v3.43l-.36-.68c-1.02-1.92-2.89-3.02-5.11-3.02-3.46,0-6.17,2.73-6.17,6.22s2.71,6.22,6.17,6.22c2.23,0,4.09-1.1,5.11-3.02l.36-.68v3.03c0,2.95-1.95,4.79-5.08,4.79-2.87,0-4.19-1.21-4.8-2.31l-.75.42Zm5.22-3.03c-3.03,0-5.4-2.38-5.4-5.43s2.37-5.43,5.4-5.43,5.4,2.38,5.4,5.43-2.37,5.43-5.4,5.43Zm0-10.47c-2.81,0-5.02,2.21-5.02,5.04s2.2,5.04,5.02,5.04,5.02-2.22,5.02-5.04-2.2-5.04-5.02-5.04Z"/>
      </g>
      <g>
        <path class="cls-3" d="m384.02,126.41v7.64h-1.25v-7.64c0-2.26-1.3-3.74-3.61-3.74s-4.3,1.57-4.3,4.89v6.49h-1.23v-12.29h1.23v2.33c.93-1.82,2.51-2.6,4.4-2.6,2.92,0,4.77,1.94,4.77,4.92Z"/>
        <path class="cls-3" d="m384.21,134.24h-1.64v-7.83c0-2.22-1.28-3.54-3.42-3.54-2.57,0-4.11,1.76-4.11,4.7v6.68h-1.61v-12.67h1.61v1.83c.94-1.37,2.38-2.1,4.21-2.1,3.01,0,4.96,2,4.96,5.11v7.83Zm-1.25-.38h.87v-7.45c0-2.87-1.8-4.72-4.58-4.72-1.95,0-3.38.84-4.23,2.5l-.36.71v-2.94h-.84v11.9h.84v-6.3c0-3.14,1.72-5.08,4.49-5.08,2.35,0,3.81,1.5,3.81,3.93v7.45Z"/>
      </g>
    </g>
  </g>
</svg>